<svg width="112" height="17" viewBox="0 0 112 17" fill="none" xmlns="http://www.w3.org/2000/svg">
<path d="M-0.000105444 12.4919L5.1119 -5.67436e-05H6.33589L11.4299 12.4919H9.59389L5.3999 1.92594H6.0299L1.79989 12.4919H-0.000105444ZM2.42989 9.66594V8.18994H8.99989V9.66594H2.42989ZM17.6631 12.6719C17.0151 12.6719 16.4271 12.5399 15.8991 12.2759C15.3831 11.9999 14.9691 11.6219 14.6571 11.1419C14.3451 10.6619 14.1711 10.1159 14.1351 9.50394V6.92994C14.1711 6.30594 14.3451 5.75994 14.6571 5.29194C14.9811 4.81194 15.4011 4.43994 15.9171 4.17594C16.4451 3.89994 17.0271 3.76194 17.6631 3.76194C18.4431 3.76194 19.1451 3.95994 19.7691 4.35594C20.4051 4.75194 20.9031 5.28594 21.2631 5.95794C21.6231 6.62994 21.8031 7.38594 21.8031 8.22594C21.8031 9.06594 21.6231 9.82194 21.2631 10.4939C20.9031 11.1659 20.4051 11.6999 19.7691 12.0959C19.1451 12.4799 18.4431 12.6719 17.6631 12.6719ZM17.3931 11.1419C17.9331 11.1419 18.4071 11.0159 18.8151 10.7639C19.2231 10.5119 19.5471 10.1699 19.7871 9.73794C20.0271 9.29394 20.1471 8.78394 20.1471 8.20794C20.1471 7.64394 20.0271 7.13994 19.7871 6.69594C19.5471 6.25194 19.2231 5.90994 18.8151 5.66994C18.4071 5.41794 17.9391 5.29194 17.4111 5.29194C16.8711 5.29194 16.3971 5.41794 15.9891 5.66994C15.5811 5.90994 15.2631 6.25194 15.0351 6.69594C14.8071 7.13994 14.6931 7.64994 14.6931 8.22594C14.6931 8.78994 14.8011 9.29394 15.0171 9.73794C15.2451 10.1699 15.5631 10.5119 15.9711 10.7639C16.3911 11.0159 16.8651 11.1419 17.3931 11.1419ZM13.1631 16.0739V3.94194H14.7831V6.19194L14.4771 8.26194L14.7831 10.3499V16.0739H13.1631ZM28.1397 12.6719C27.4917 12.6719 26.9037 12.5399 26.3757 12.2759C25.8597 11.9999 25.4457 11.6219 25.1337 11.1419C24.8217 10.6619 24.6477 10.1159 24.6117 9.50394V6.92994C24.6477 6.30594 24.8217 5.75994 25.1337 5.29194C25.4577 4.81194 25.8777 4.43994 26.3937 4.17594C26.9217 3.89994 27.5037 3.76194 28.1397 3.76194C28.9197 3.76194 29.6217 3.95994 30.2457 4.35594C30.8817 4.75194 31.3797 5.28594 31.7397 5.95794C32.0997 6.62994 32.2797 7.38594 32.2797 8.22594C32.2797 9.06594 32.0997 9.82194 31.7397 10.4939C31.3797 11.1659 30.8817 11.6999 30.2457 12.0959C29.6217 12.4799 28.9197 12.6719 28.1397 12.6719ZM27.8697 11.1419C28.4097 11.1419 28.8837 11.0159 29.2917 10.7639C29.6997 10.5119 30.0237 10.1699 30.2637 9.73794C30.5037 9.29394 30.6237 8.78394 30.6237 8.20794C30.6237 7.64394 30.5037 7.13994 30.2637 6.69594C30.0237 6.25194 29.6997 5.90994 29.2917 5.66994C28.8837 5.41794 28.4157 5.29194 27.8877 5.29194C27.3477 5.29194 26.8737 5.41794 26.4657 5.66994C26.0577 5.90994 25.7397 6.25194 25.5117 6.69594C25.2837 7.13994 25.1697 7.64994 25.1697 8.22594C25.1697 8.78994 25.2777 9.29394 25.4937 9.73794C25.7217 10.1699 26.0397 10.5119 26.4477 10.7639C26.8677 11.0159 27.3417 11.1419 27.8697 11.1419ZM23.6397 16.0739V3.94194H25.2597V6.19194L24.9537 8.26194L25.2597 10.3499V16.0739H23.6397ZM38.0222 12.6719C37.1822 12.6719 36.4262 12.4739 35.7542 12.0779C35.0822 11.6819 34.5482 11.1479 34.1522 10.4759C33.7562 9.79194 33.5582 9.02994 33.5582 8.18994C33.5582 7.36194 33.7562 6.61794 34.1522 5.95794C34.5482 5.28594 35.0822 4.75194 35.7542 4.35594C36.4262 3.95994 37.1822 3.76194 38.0222 3.76194C38.8502 3.76194 39.6002 3.95994 40.2722 4.35594C40.9562 4.73994 41.4962 5.26794 41.8922 5.93994C42.2882 6.61194 42.4862 7.36194 42.4862 8.18994C42.4862 9.02994 42.2882 9.79194 41.8922 10.4759C41.4962 11.1479 40.9562 11.6819 40.2722 12.0779C39.6002 12.4739 38.8502 12.6719 38.0222 12.6719ZM38.0222 11.1059C38.5622 11.1059 39.0422 10.9799 39.4622 10.7279C39.8822 10.4759 40.2122 10.1339 40.4522 9.70194C40.6922 9.25794 40.8122 8.75394 40.8122 8.18994C40.8122 7.63794 40.6862 7.14594 40.4342 6.71394C40.1942 6.28194 39.8642 5.94594 39.4442 5.70594C39.0362 5.45394 38.5622 5.32794 38.0222 5.32794C37.4822 5.32794 37.0022 5.45394 36.5822 5.70594C36.1622 5.94594 35.8322 6.28194 35.5922 6.71394C35.3522 7.14594 35.2322 7.63794 35.2322 8.18994C35.2322 8.75394 35.3522 9.25794 35.5922 9.70194C35.8322 10.1339 36.1622 10.4759 36.5822 10.7279C37.0022 10.9799 37.4822 11.1059 38.0222 11.1059ZM44.3295 12.4919V3.94194H45.9495V12.4919H44.3295ZM45.1395 2.23194C44.8395 2.23194 44.5935 2.13594 44.4015 1.94394C44.2095 1.73994 44.1135 1.48794 44.1135 1.18794C44.1135 0.899943 44.2095 0.659943 44.4015 0.467943C44.5935 0.263942 44.8395 0.161942 45.1395 0.161942C45.4395 0.161942 45.6855 0.263942 45.8775 0.467943C46.0695 0.659943 46.1655 0.899943 46.1655 1.18794C46.1655 1.48794 46.0695 1.73994 45.8775 1.94394C45.6855 2.13594 45.4395 2.23194 45.1395 2.23194ZM54.3849 12.4919V7.50594C54.3849 6.85794 54.1809 6.32394 53.7729 5.90394C53.3649 5.48394 52.8369 5.27394 52.1889 5.27394C51.7569 5.27394 51.3729 5.36994 51.0369 5.56194C50.7009 5.75394 50.4369 6.01794 50.2449 6.35394C50.0529 6.68994 49.9569 7.07394 49.9569 7.50594L49.2909 7.12794C49.2909 6.47994 49.4349 5.90394 49.7229 5.39994C50.0109 4.89594 50.4129 4.49994 50.9289 4.21194C51.4449 3.91194 52.0269 3.76194 52.6749 3.76194C53.3229 3.76194 53.8929 3.92394 54.3849 4.24794C54.8889 4.57194 55.2849 4.99794 55.5729 5.52594C55.8609 6.04194 56.0049 6.59394 56.0049 7.18194V12.4919H54.3849ZM48.3369 12.4919V3.94194H49.9569V12.4919H48.3369ZM59.4068 12.4919V0.359943H61.0268V12.4919H59.4068ZM57.3008 5.41794V3.94194H63.1328V5.41794H57.3008ZM64.7197 12.4919V3.94194H66.3397V12.4919H64.7197ZM70.4977 12.4919V7.32594C70.4977 6.68994 70.2997 6.19194 69.9037 5.83194C69.5197 5.45994 69.0337 5.27394 68.4457 5.27394C68.0497 5.27394 67.6957 5.35794 67.3837 5.52594C67.0717 5.69394 66.8197 5.92794 66.6277 6.22794C66.4357 6.52794 66.3397 6.88794 66.3397 7.30794L65.6737 6.98394C65.6737 6.33594 65.8117 5.77194 66.0877 5.29194C66.3757 4.81194 66.7657 4.43994 67.2577 4.17594C67.7497 3.89994 68.3017 3.76194 68.9137 3.76194C69.5137 3.76194 70.0537 3.89394 70.5337 4.15794C71.0257 4.42194 71.4097 4.79394 71.6857 5.27394C71.9737 5.75394 72.1177 6.32394 72.1177 6.98394V12.4919H70.4977ZM76.2757 12.4919V7.32594C76.2757 6.68994 76.0777 6.19194 75.6817 5.83194C75.2977 5.45994 74.8177 5.27394 74.2417 5.27394C73.8457 5.27394 73.4857 5.35794 73.1617 5.52594C72.8497 5.69394 72.5977 5.92794 72.4057 6.22794C72.2137 6.52794 72.1177 6.88794 72.1177 7.30794L71.1997 6.98394C71.2357 6.32394 71.4097 5.75994 71.7217 5.29194C72.0457 4.81194 72.4597 4.43994 72.9637 4.17594C73.4677 3.89994 74.0197 3.76194 74.6197 3.76194C75.2437 3.76194 75.8017 3.89394 76.2937 4.15794C76.7857 4.42194 77.1757 4.79394 77.4637 5.27394C77.7637 5.75394 77.9137 6.32994 77.9137 7.00194V12.4919H76.2757ZM84.0782 12.6719C83.2262 12.6719 82.4582 12.4799 81.7742 12.0959C81.0902 11.6999 80.5502 11.1659 80.1542 10.4939C79.7582 9.82194 79.5602 9.05994 79.5602 8.20794C79.5602 7.36794 79.7522 6.61194 80.1362 5.93994C80.5322 5.26794 81.0602 4.73994 81.7202 4.35594C82.3922 3.95994 83.1422 3.76194 83.9702 3.76194C84.7622 3.76194 85.4582 3.94194 86.0582 4.30194C86.6702 4.66194 87.1442 5.15994 87.4802 5.79594C87.8282 6.43194 88.0022 7.15194 88.0022 7.95594C88.0022 8.07594 87.9962 8.20794 87.9842 8.35194C87.9722 8.48394 87.9482 8.63994 87.9122 8.81994H80.6942V7.46994H87.0482L86.4542 7.99194C86.4542 7.41594 86.3522 6.92994 86.1482 6.53394C85.9442 6.12594 85.6562 5.81394 85.2842 5.59794C84.9122 5.36994 84.4622 5.25594 83.9342 5.25594C83.3822 5.25594 82.8962 5.37594 82.4762 5.61594C82.0562 5.85594 81.7322 6.19194 81.5042 6.62394C81.2762 7.05594 81.1622 7.56594 81.1622 8.15394C81.1622 8.75394 81.2822 9.28194 81.5222 9.73794C81.7622 10.1819 82.1042 10.5299 82.5482 10.7819C82.9922 11.0219 83.5022 11.1419 84.0782 11.1419C84.5582 11.1419 84.9962 11.0579 85.3922 10.8899C85.8002 10.7219 86.1482 10.4699 86.4362 10.1339L87.4802 11.1959C87.0722 11.6759 86.5682 12.0419 85.9682 12.2939C85.3802 12.5459 84.7502 12.6719 84.0782 12.6719ZM95.8166 12.4919V7.50594C95.8166 6.85794 95.6126 6.32394 95.2046 5.90394C94.7966 5.48394 94.2686 5.27394 93.6206 5.27394C93.1886 5.27394 92.8046 5.36994 92.4686 5.56194C92.1326 5.75394 91.8686 6.01794 91.6766 6.35394C91.4846 6.68994 91.3886 7.07394 91.3886 7.50594L90.7226 7.12794C90.7226 6.47994 90.8666 5.90394 91.1546 5.39994C91.4426 4.89594 91.8446 4.49994 92.3606 4.21194C92.8766 3.91194 93.4586 3.76194 94.1066 3.76194C94.7546 3.76194 95.3246 3.92394 95.8166 4.24794C96.3206 4.57194 96.7166 4.99794 97.0046 5.52594C97.2926 6.04194 97.4366 6.59394 97.4366 7.18194V12.4919H95.8166ZM89.7686 12.4919V3.94194H91.3886V12.4919H89.7686ZM100.838 12.4919V0.359943H102.458V12.4919H100.838ZM98.7324 5.41794V3.94194H104.564V5.41794H98.7324ZM108.694 12.6719C108.214 12.6719 107.758 12.6119 107.326 12.4919C106.906 12.3599 106.516 12.1799 106.156 11.9519C105.796 11.7119 105.484 11.4299 105.22 11.1059L106.264 10.0619C106.576 10.4459 106.936 10.7339 107.344 10.9259C107.752 11.1059 108.208 11.1959 108.712 11.1959C109.216 11.1959 109.606 11.1119 109.882 10.9439C110.158 10.7639 110.296 10.5179 110.296 10.2059C110.296 9.89394 110.182 9.65394 109.954 9.48594C109.738 9.30594 109.456 9.16194 109.108 9.05394C108.76 8.93394 108.388 8.81994 107.992 8.71194C107.608 8.59194 107.242 8.44194 106.894 8.26194C106.546 8.08194 106.258 7.83594 106.03 7.52394C105.814 7.21194 105.706 6.79794 105.706 6.28194C105.706 5.76594 105.832 5.32194 106.084 4.94994C106.336 4.56594 106.684 4.27194 107.128 4.06794C107.584 3.86394 108.13 3.76194 108.766 3.76194C109.438 3.76194 110.032 3.88194 110.548 4.12194C111.076 4.34994 111.508 4.69794 111.844 5.16594L110.8 6.20994C110.56 5.89794 110.26 5.65794 109.9 5.48994C109.552 5.32194 109.156 5.23794 108.712 5.23794C108.244 5.23794 107.884 5.32194 107.632 5.48994C107.392 5.64594 107.272 5.86794 107.272 6.15594C107.272 6.44394 107.38 6.66594 107.596 6.82194C107.812 6.97794 108.094 7.10994 108.442 7.21794C108.802 7.32594 109.174 7.43994 109.558 7.55994C109.942 7.66794 110.308 7.81794 110.656 8.00994C111.004 8.20194 111.286 8.45994 111.502 8.78394C111.73 9.10794 111.844 9.53394 111.844 10.0619C111.844 10.8659 111.556 11.5019 110.98 11.9699C110.416 12.4379 109.654 12.6719 108.694 12.6719Z" fill="#515151"/>
</svg>
